<?xml version="1.0" encoding="utf-8"?>
<!-- Generator: Adobe Illustrator 24.3.0, SVG Export Plug-In . SVG Version: 6.00 Build 0)  -->
<svg version="1.1"
	 id="svg5340" xmlns:cc="http://creativecommons.org/ns#" xmlns:dc="http://purl.org/dc/elements/1.1/" xmlns:inkscape="http://www.inkscape.org/namespaces/inkscape" xmlns:rdf="http://www.w3.org/1999/02/22-rdf-syntax-ns#" xmlns:sodipodi="http://sodipodi.sourceforge.net/DTD/sodipodi-0.dtd" xmlns:svg="http://www.w3.org/2000/svg"
	 xmlns="http://www.w3.org/2000/svg" xmlns:xlink="http://www.w3.org/1999/xlink" x="0px" y="0px" viewBox="0 0 172.2 311.4"
	 style="enable-background:new 0 0 172.2 311.4;" xml:space="preserve">
<style type="text/css">
	.st0{fill:#808080;}
	.st1{fill-rule:evenodd;clip-rule:evenodd;fill:#ABABAB;}
	.st2{fill-rule:evenodd;clip-rule:evenodd;fill:#808080;}
	.st3{fill-rule:evenodd;clip-rule:evenodd;fill:#CCCCCC;}
	.st4{fill:#616161;}
	.st5{fill:#999999;}
	.st6{fill-rule:evenodd;clip-rule:evenodd;fill:#616161;}
	.st7{fill-rule:evenodd;clip-rule:evenodd;fill:#474747;}
	.st8{fill:#CCCCCC;}
	.st9{fill:#474747;}
	.st10{fill-rule:evenodd;clip-rule:evenodd;}
	.st11{fill-rule:evenodd;clip-rule:evenodd;fill:#EEB211;}
	.st12{fill-rule:evenodd;clip-rule:evenodd;fill:#FFFFAC;}
	.st13{fill:#ABABAB;}
	.st14{fill-rule:evenodd;clip-rule:evenodd;fill:#999999;}
	.st15{fill:#EEB211;}
	.st16{fill:#FAD94E;}
</style>
<polyline class="st0" points="164.9,154.8 164.6,155.6 147.5,154.6 147.6,153.9 "/>
<path id="path4400-7-6-7-02-9" inkscape:connector-curvature="0" sodipodi:nodetypes="ccsc" class="st0" d="M160.1,135l0.1-7
	c0,0,3.9-0.2,3.9,3.6C164.1,135.7,160.1,135,160.1,135z"/>
<path id="path4286_1_" inkscape:connector-curvature="0" class="st1" d="M162.5,130.3c0.5,2.7-1.4,5.4-4.1,5.8l0,0
	c-2.7,0.5-5.4-1.4-5.8-4.1l0,0c-0.5-2.7,1.4-5.4,4.1-5.8l0,0C159.4,125.7,162,127.5,162.5,130.3L162.5,130.3z"/>
<path id="path4220_1_" inkscape:connector-curvature="0" class="st2" d="M37.9,156.2l-9.5,28.3c-3.6-0.2-7.4,0.4-10.8-0.7l7.9-24
	L37.9,156.2z"/>
<path id="path4252" inkscape:connector-curvature="0" class="st2" d="M61.6,70.6C49.4,42,30.4,22.4,11.6,0l0.1,1.6
	c18.6,22,36.7,42,48.5,69.7L61.6,70.6L61.6,70.6z"/>
<sodipodi:namedview  bordercolor="#666666" borderopacity="1.0" fit-margin-bottom="0" fit-margin-left="0.2" fit-margin-right="0" fit-margin-top="0" id="base" inkscape:current-layer="layer1" inkscape:cx="141.0762" inkscape:cy="160.69374" inkscape:document-units="px" inkscape:pageopacity="0.0" inkscape:pageshadow="2" inkscape:window-height="697" inkscape:window-maximized="1" inkscape:window-width="1280" inkscape:window-x="-8" inkscape:window-y="-8" inkscape:zoom="4" pagecolor="#ffffff" showgrid="false" showguides="false">
	</sodipodi:namedview>
<g id="g4174" transform="translate(-90.859083,52.184348)">
	<path id="path4176" inkscape:connector-curvature="0" sodipodi:nodetypes="scccsccccccccs" class="st2" d="M211.4,9.7
		c-8.4,0-15.4,6.8-17.4,15.9v-0.1l-0.1,0.8c-0.3,1.5-0.4,3-0.4,4.5V31l1,62.8c0,0,11.8-5,20.5-6.8c9.9-0.2,17.9-9,17.9-19.8
		l-0.3-3.4C231.4,56.6,227,51,221,48.6c5-3.7,8.4-10.3,8.4-17.9l-0.3-3.6C227.6,16.9,220.2,9.7,211.4,9.7z"/>
	<path id="path4178" inkscape:connector-curvature="0" sodipodi:nodetypes="ccccscccccccc" class="st3" d="M219.3,11.7
		c-8.4,0-15.4,6.8-17.4,15.9c0,0,0-0.1-0.1-0.1l-0.1,0.8c-0.3,1.5-0.4,3-0.4,4.5v0.3l-5.5,62c0,0,18.2-4.2,26.9-6
		c9.7-1.8,17.9-9,17.9-19.8l-0.3-3.4c-1.1-7.2-5.6-12.8-11.6-15.2c5-3.7,8.4-10.3,8.4-17.9C236.6,22.2,229.6,11.9,219.3,11.7z"/>
</g>
<path id="path4400-7-6-1" inkscape:connector-curvature="0" sodipodi:nodetypes="cccccccccccccc" class="st0" d="M145.7,151.5
	l-1.3,13.8l5.5,9.4l-0.2,8.7l2.1-1.7l1-12.2l-1.3-1.3l-1.7,1.2l0.1,3l-3.3-8.2l1.1-10.5l0.3-2.9L145.7,151.5z"/>
<path id="path4400-7-6-7-0" inkscape:connector-curvature="0" sodipodi:nodetypes="cccc" class="st0" d="M165.2,136.3l-9.5,18.6
	l-0.2,0.1l5.3-20.2l1.3-0.4L165.2,136.3z"/>
<path id="path4400-7-6-7" inkscape:connector-curvature="0" sodipodi:nodetypes="ccccc" class="st0" d="M166.3,138.9v4.3l-2.2,1
	l-3.2-5.5L166.3,138.9z"/>
<path id="path4188" inkscape:connector-curvature="0" class="st1" d="M160.3,134.6l3.2,2l-8,18.4l-4.2-17.4l2.5-2.6L160.3,134.6
	L160.3,134.6z"/>
<path id="path4400-7-6" inkscape:connector-curvature="0" sodipodi:nodetypes="ccccccccccccccc" class="st0" d="M161.1,143.1
	l7.8,5.1c3.3,0.5,4.2,3.8,2.5,6l-1.1,11.8l-9.6,12.2l-0.1,2.6l-1.1,1.5l-2.2,1.4l1.6-13.6l1.9-1.5l-0.2,3.8l7.5-5.6l1.7-15
	l-11.3-7.8L161.1,143.1z"/>
<g id="g4190" transform="matrix(0.90478024,-0.15867388,0.15867388,0.90478024,-101.12999,127.81646)">
	<path id="path4192" inkscape:connector-curvature="0" class="st1" d="M269.9,81.1l-12.2,0.2l-1.4,4.9l3.6,10.1l1.1-4.6l1,1.6
		l-3.6,13.5l-1.2-1.9l1-3.6l-6-16.2l2.7-12.5c-0.2-3.8,1.7-5.1,4.7-4.6l10.9-3.6l3.4,0.8l-2.2,4.9l-11.7,2l-0.8,2.8l11.1,2.5
		L269.9,81.1L269.9,81.1z"/>
	<path id="path4194" inkscape:connector-curvature="0" class="st1" d="M268.3,80.7l10.7,5.9l-1.1,5l-8,7.2l1.2-4.6l-1.7,0.9
		l-3.1,13.6l1.9-1.1l0.8-3.7l12.8-11.5l3.5-12.3c2-3.2,0.9-5.3-2-6.3l-8-8.3l-3.4-0.9l-0.3,5.3l9.4,7.2l-1.3,2.3l-9.1-2.1
		L268.3,80.7z"/>
</g>
<path id="path4400-7-6-7-02-4" inkscape:connector-curvature="0" sodipodi:nodetypes="ccccc" class="st4" d="M126.2,110.7l26.2-3.3
	l-3.5,3.8L133,113L126.2,110.7z"/>
<polygon id="rect4198" class="st5" points="130.5,111.6 165.1,107.6 165.4,114.8 130.8,118.8 "/>
<g id="g4200" transform="translate(-93.659083,44.598348)">
	<path id="path4202" inkscape:connector-curvature="0" sodipodi:nodetypes="cccccc" class="st6" d="M147.3,109.5l8.6-6.4l15.7,22.8
		l-0.2,4.4l-6.3-6.6L147.3,109.5z"/>
	<path id="path4204" inkscape:connector-curvature="0" class="st1" d="M148.9,109.1l7.6-12.8l17.6,14l-4.5,16.2l-3.8-4.1
		L148.9,109.1z"/>
</g>
<path id="path4214" inkscape:connector-curvature="0" sodipodi:nodetypes="czcc" class="st7" d="M29.1,190c0.5,2.8-0.7,5.9-5.2,5.9
	c-7.2,0-8.9-4.4-8.5-8.8C18.2,187,26.1,189.3,29.1,190L29.1,190z"/>
<path id="path4220" inkscape:connector-curvature="0" class="st1" d="M35.9,158.3l-9.5,28.3c-3.6-0.2-7.4,0.4-10.8-0.7l7.9-24
	L35.9,158.3z"/>
<path id="path4222" inkscape:connector-curvature="0" class="st7" d="M141.4,202c0,16.9-13,30.6-29,30.6s-29-13.7-29-30.6
	s13-30.6,29-30.6S141.3,185.1,141.4,202L141.4,202z"/>
<path id="path4224" inkscape:connector-curvature="0" class="st8" d="M113.5,150.3c5.8,6.8,2.7,18.1-7,25.2
	c-9.7,7.1-22.3,7.3-28.1,0.5l0,0c-5.8-6.8-2.7-18.1,7-25.2C95.1,143.6,107.7,143.4,113.5,150.3z"/>
<path id="path4226" inkscape:connector-curvature="0" class="st9" d="M109.6,151.7c4.8,5.7,2.2,15.1-5.8,21s-18.4,6.1-23.2,0.4
	c-4.8-5.7-2.2-15.1,5.8-21C94.4,146.1,104.8,146,109.6,151.7C109.6,151.6,109.6,151.6,109.6,151.7z"/>
<path id="path4244" inkscape:connector-curvature="0" sodipodi:nodetypes="cccccccc" class="st7" d="M65.1,235.7l7.5,4l42.7,15.6
	l13.2,1.6l-9.5-8.3l-28.2-10.3l-19.2-5.5L65.1,235.7z"/>
<path id="path4246" inkscape:connector-curvature="0" class="st7" d="M121.6,254l-48.8,57.4l-1-74.7C90.6,240,102.2,244.1,121.6,254
	z"/>
<path id="path4248" inkscape:connector-curvature="0" sodipodi:nodetypes="cccccc" class="st10" d="M104.3,245.9l9.5,4.3l-42,2.2
	l-5.8-3.3l0.5-1.5L104.3,245.9z"/>
<path id="path4254" inkscape:connector-curvature="0" sodipodi:nodetypes="ccccc" class="st10" d="M70,234.8l-4.9,0.9l16.1-46.2
	l5.2-4.2L70,234.8z"/>
<path id="path4258" inkscape:connector-curvature="0" sodipodi:nodetypes="ccccc" class="st11" d="M70,234.8l16.4-49.5l20.4,3.9
	l-16.9,50.5L70,234.8z"/>
<path id="path4260" inkscape:connector-curvature="0" sodipodi:nodetypes="ccccc" class="st12" d="M117.7,250.3l16.9-51l-27.7-10.1
	L90,239.8L117.7,250.3z"/>
<path id="path4262" inkscape:connector-curvature="0" sodipodi:nodetypes="ccccc" class="st11" d="M128.6,256.9l-11-6.7l16.9-51
	l10.6,8.2L128.6,256.9z"/>
<path id="path4400-7-6-7-02" inkscape:connector-curvature="0" sodipodi:nodetypes="ccccc" class="st0" d="M164.6,114.5l-0.7,12.3
	l-1.2,1.7l0.9-14.4L164.6,114.5z"/>
<path id="rect4278" class="st13" d="M153.7,111.6l10,0.6c0.1,0,0.1,0.1,0.1,0.1l-1.1,16c0,0.1-0.1,0.1-0.1,0.1l-10-0.6
	c-0.1,0-0.1-0.1-0.1-0.1l1.1-16C153.6,111.7,153.6,111.6,153.7,111.6z"/>
<polygon id="rect4280" class="st8" points="147.6,138.7 164.1,139.2 164.1,144.1 147.5,143.6 "/>
<g id="g4282" transform="matrix(0.90478024,-0.15867388,0.15867388,0.90478024,-61.055079,113.78173)">
	<path id="path4284" inkscape:connector-curvature="0" class="st14" d="M231.5,54.7c1.5,1.8,1.6-0.6,2.5,1.5s-0.9,0.6-0.7,2.9
		c0.2,2.3,1.7,0.5,1.1,2.7c-0.5,2.2-1-0.1-2.2,1.9s1.1,1.4-0.7,2.9s-0.8-0.7-2.9,0.2c-2.1,0.9,0,1.7-2.2,1.9c-2.3,0.2-0.3-1-2.5-1.6
		c-2.2-0.5-1,1.4-2.9,0.2c-2-1.2,0.4-1-1.1-2.7c-1.5-1.8-1.6,0.6-2.5-1.5s0.9-0.6,0.7-2.9s-1.7-0.5-1.1-2.7c0.5-2.2,1,0.1,2.2-1.9
		s-1.1-1.4,0.7-2.9s0.8,0.7,2.9-0.2c2.1-0.9,0-1.7,2.2-1.9c2.3-0.2,0.3,1,2.5,1.6c2.2,0.5,1-1.4,2.9-0.2S230,52.9,231.5,54.7
		L231.5,54.7z"/>
	<path id="path4286" inkscape:connector-curvature="0" class="st6" d="M229.9,59.7c0,2.4-1.9,4.3-4.3,4.3l0,0
		c-2.4,0-4.3-1.9-4.3-4.3l0,0c0-2.4,1.9-4.3,4.3-4.3l0,0C228,55.3,229.9,57.3,229.9,59.7L229.9,59.7z"/>
</g>
<g id="g4292" transform="matrix(0.96313857,-0.16890836,0.16890836,0.96313857,-155.31986,88.220911)">
	<path id="path4294" inkscape:connector-curvature="0" class="st2" d="M320.9,76.9c0,5.2-4.2,9.4-9.4,9.4l0,0
		c-5.2,0-9.4-4.2-9.4-9.4l0,0c0-5.2,4.2-9.4,9.4-9.4l0,0C316.7,67.5,320.9,71.7,320.9,76.9L320.9,76.9z"/>
	<path id="path4296" inkscape:connector-curvature="0" class="st3" d="M315.6,77c0,2.4-1.9,4.3-4.3,4.3l0,0c-2.4,0-4.3-1.9-4.3-4.3
		l0,0c0-2.4,1.9-4.3,4.3-4.3l0,0C313.7,72.6,315.6,74.6,315.6,77L315.6,77z"/>
</g>
<path id="path4218-1" inkscape:connector-curvature="0" sodipodi:nodetypes="czccc" class="st2" d="M15.8,184.8
	c-1,4-0.6,5.8,1.7,7.3c2.3,1.4,6.2,0.8,9.3,0.4c3.5-0.4,2.2-5.5,1.8-8C24.5,185,20.1,185.3,15.8,184.8L15.8,184.8z"/>
<path id="path4304" inkscape:connector-curvature="0" sodipodi:nodetypes="cccssccsccsccc" class="st14" d="M40.7,182.4
	c0.6,2.7,0,9.9-1,12.5s0.5,2.2-2.5,3.2s-0.8-0.8-3.9-1.1s-1.2,1.9-4,0.4c-2.8-1.4,0.1-1.1-2-3.5s-2.2,0.5-3.2-2.5s0.8-0.7,1.1-3.9
	c0.3-3.2-1.9-1.2-0.4-4c1.4-2.8,1.1,0.1,3.5-2s-0.5-2.2,2.5-3.2s0.8,0.8,3.9,1.1c3.2,0.3,1.2-1.9,4-0.4
	C41.6,180.3,40.1,179.7,40.7,182.4z"/>
<path id="path4306" inkscape:connector-curvature="0" d="M37.2,187.9c0.1,2.1-1.6,3.9-3.7,4s-3.9-1.6-4-3.7c0-0.1,0-0.2,0-0.2
	c-0.1-2.1,1.6-3.9,3.7-4s3.9,1.6,4,3.7C37.2,187.7,37.2,187.8,37.2,187.9z"/>
<path id="path4314" inkscape:connector-curvature="0" sodipodi:nodetypes="cccccc" class="st1" d="M51.9,188.7H61l-0.1,2.7l-3.4,2.7
	l-9-2.8L51.9,188.7z"/>
<g id="g4316" transform="translate(32.786421,86.716148)">
	<path id="path4320" inkscape:connector-curvature="0" sodipodi:nodetypes="cccccc" class="st1" d="M5.9,119.4l9.1-3l-2.3-13.8
		l2.8-14.8L4.8,90.2L5.9,119.4z"/>
	<path id="path4322" inkscape:connector-curvature="0" sodipodi:nodetypes="ccccc" class="st1" d="M13.3,119.5l5.3-2.8l6.9-10.1
		c0,0-2.9,0.4-3.6,0.4L13.3,119.5z"/>
</g>
<polygon class="st2" points="57.5,191.3 48.4,191.3 48.4,194.2 50.2,194.2 46,200.4 43.4,200.4 41.9,190.8 34.4,191.3 36.7,206.2 
	41.6,206.2 44.3,206.2 46,206.2 46.1,206.2 54.7,194.2 57.5,194.2 "/>
<path id="path4334" inkscape:connector-curvature="0" sodipodi:nodetypes="cccc" class="st2" d="M51.8,182.8l-1.7,2.6h-2L51.8,182.8
	z"/>
<path id="path4336" inkscape:connector-curvature="0" sodipodi:nodetypes="cccccc" class="st1" d="M51.8,182.8h9.1v2.9l-3.5,2.6
	l-5.5-2.6v-2.9H51.8z"/>
<path id="path4344" inkscape:connector-curvature="0" sodipodi:nodetypes="ccccc" class="st14" d="M40.1,170.7h9.7l-3.9,2.6
	l-9.5-0.1L40.1,170.7z"/>
<path id="path4346" inkscape:connector-curvature="0" class="st3" d="M45.7,173.3l4-2.5l8.6,12l-4,2.5L45.7,173.3z"/>
<path id="path4348" inkscape:connector-curvature="0" class="st2" d="M36.4,173.3l-2.3,14.9h7.6l1.4-9.1h2.6l4.2,6.2h-1.8v2.9h9
	v-2.9h-2.8l-8.6-12h-0.1h-1.7h-2.7C41.3,173.3,36.4,173.3,36.4,173.3z"/>
<g id="g4356" transform="matrix(0.86331,0,0,1,-44.439083,21.161648)">
	<path id="path4358" inkscape:connector-curvature="0" class="st7" d="M100.3,168.1c0,2.7-2.2,4.9-4.9,4.9l0,0
		c-2.7,0-4.9-2.2-4.9-4.9l0,0c0-2.7,2.2-4.9,4.9-4.9l0,0C98.1,163.2,100.3,165.4,100.3,168.1L100.3,168.1z"/>
	<path id="path4362" inkscape:connector-curvature="0" class="st3" d="M98.7,168.1c0,1.8-1.5,3.3-3.3,3.3l0,0
		c-1.8,0-3.3-1.5-3.3-3.3l0,0c0-1.8,1.5-3.3,3.3-3.3l0,0C97.2,164.9,98.7,166.3,98.7,168.1L98.7,168.1z"/>
</g>
<path id="path4372" inkscape:connector-curvature="0" sodipodi:nodetypes="ccccc" class="st14" d="M73.4,152.8l11.5-8.1l10.3,12
	c1.5,6.9-3.7,10.6-10.1,8.8L73.4,152.8z"/>
<path id="path4378" inkscape:connector-curvature="0" sodipodi:nodetypes="cscsc" class="st6" d="M85.5,146.6c0.2,2.8-2.7,6-6.4,7.1
	c-3.7,1.1-6.2,0.1-6.3-2.7c-0.2-2.8,2.2-6.3,5.9-7.5C82.4,142.4,85.4,143.8,85.5,146.6L85.5,146.6z"/>
<path id="path4380" inkscape:connector-curvature="0" class="st5" d="M58.3,125.7l3.8-3l19,24c-0.2,1.8-1.5,2.9-3.8,3L58.3,125.7z"
	/>
<path id="path4382" inkscape:connector-curvature="0" sodipodi:nodetypes="ccccc" class="st14" d="M78.1,175.9
	c12.3,10.4,40.8-1,36.1-24.6l4,7.4c3.5,16.3-19.5,29.9-33.1,23.2L78.1,175.9z"/>
<path id="path4414" inkscape:connector-curvature="0" sodipodi:nodetypes="ccccc" class="st9" d="M76.6,202.8
	c13-2.6,56.8,12,62.8,21.6l-5.4,15.9c-11.1-10.1-49.1-24-62.9-21.6L76.6,202.8z"/>
<path id="path4426" inkscape:connector-curvature="0" sodipodi:nodetypes="ccccccc" d="M102.6,205.2l1,1.6L98,223l-13.1-3.4
	l-0.5-1.5l11.7-1.3L102.6,205.2z"/>
<path id="path4430" inkscape:connector-curvature="0" sodipodi:nodetypes="ccccc" class="st4" d="M90,202.5l12.6,2.7l-5.5,16
	l-12.6-3.1L90,202.5z"/>
<path id="path4432" inkscape:connector-curvature="0" sodipodi:nodetypes="ccccccc" d="M84.9,201.4l1,1.6l-6.2,15.8
	c-2.8-0.2-5.5-0.4-8.6,0l-0.7-1.5l7.1-7.8L84.9,201.4z"/>
<path id="path4458" inkscape:connector-curvature="0" class="st1" d="M96.4,156.5c2.6,2.2,2.5-1.1,4.1,1.8c1.6,2.9-1.3,0.8-0.9,4
	s2.8,1.1,1.9,4c-0.8,2.9-1.6-0.4-3.6,1.9c-2,2.3,1.4,2.6-1.4,3.8s-1-1.4-4.2-1.4s-0.7,2.6-3.9,1.4c-3.1-1.2,0.2-1.6-2.4-3.8
	s-2.5,1.1-4.1-1.8c-1.6-2.9,1.3-0.8,0.9-4s-2.8-1-1.9-4c0.8-3,1.6,0.4,3.6-1.9c2-2.3-1.4-2.6,1.4-3.8s1,1.4,4.2,1.4s0.7-2.6,3.9-1.4
	C97.2,153.9,93.9,154.2,96.4,156.5L96.4,156.5z"/>
<path id="path4460" inkscape:connector-curvature="0" class="st3" d="M96.4,162c0.6,2.8-1.2,5.2-3.9,5.4c-2.8,0.2-5.5-1.8-6-4.6l0,0
	c-0.6-2.8,1.2-5.2,3.9-5.4C93.1,157.2,95.8,159.2,96.4,162z"/>
<path id="path4426-1-3" inkscape:connector-curvature="0" sodipodi:nodetypes="ccccccc" d="M110.8,207.5l-1.8,1.1l-6.1,16l13,5.2
	l1.8-0.8l-10.7-8.2L110.8,207.5z"/>
<path id="path4422-0" inkscape:connector-curvature="0" sodipodi:nodetypes="ccccc" class="st5" d="M110.7,207.6l12.9,5.4l-6,16
	l-12.8-5.2L110.7,207.6z"/>
<path id="path4426-1-3-7" inkscape:connector-curvature="0" sodipodi:nodetypes="ccccccc" d="M128.9,215.2l-2.1,0.4l-6.4,16.3
	l9.7,5.4l1.7-0.7l-8-8.6L128.9,215.2z"/>
<path id="path4418" inkscape:connector-curvature="0" sodipodi:nodetypes="ccccc" class="st4" d="M128.9,215.2l8.4,5.9l-5.5,15.6
	l-9.4-5.4L128.9,215.2z"/>
<path id="path4430-4" inkscape:connector-curvature="0" sodipodi:nodetypes="ccccc" class="st9" d="M76.3,201.6l8.6-0.2l-6.1,15.9
	l-8.4-0.2L76.3,201.6z"/>
<path id="path4426-9" inkscape:connector-curvature="0" sodipodi:nodetypes="ccccccc" d="M139.1,224l1.7,0.1l-5.4,16.1
	c0,0.4-0.5,0.7-1.5,0.7l0.2-0.5l-1-0.9L139.1,224z"/>
<path id="path4418-5" inkscape:connector-curvature="0" sodipodi:nodetypes="ccccc" class="st9" d="M140.8,224.1l0.1,1.9l-5.5,14.3
	l-0.7-0.7L140.8,224.1z"/>
<path id="path4248-0" inkscape:connector-curvature="0" sodipodi:nodetypes="ccccccc" class="st10" d="M119,257.1l4.3,2.9l-0.7,1.4
	L72.3,264l-5.8-2.8l0.7-1.5L119,257.1z"/>
<path id="path4248-0-1" inkscape:connector-curvature="0" sodipodi:nodetypes="ccccccc" class="st10" d="M108.7,269.3l4.3,3
	l-0.6,1.4l-40,2.1l-5.9-3.2l0.7-1.4L108.7,269.3z"/>
<path id="path4248-0-1-3" inkscape:connector-curvature="0" sodipodi:nodetypes="ccccccc" class="st10" d="M98.2,281.7l4,3l-0.6,1.4
	l-29.2,1.5l-5.3-2.8l0.6-1.5L98.2,281.7z"/>
<path id="path4248-0-1-3-2" inkscape:connector-curvature="0" sodipodi:nodetypes="ccccccc" class="st10" d="M87.6,293.8l4.1,3
	l-0.6,1.4L72.6,299l-4.9-2.8l0.6-1.5L87.6,293.8z"/>
<path id="path4400" inkscape:connector-curvature="0" sodipodi:nodetypes="ccccc" class="st5" d="M105,118.5l18-6.6l-2.6,9.8
	l-20.4,6.6L105,118.5z"/>
<path id="path4392_1_" inkscape:connector-curvature="0" class="st6" d="M106.6,163h1.8l4.5,8.7h-1.8L106.6,163z"/>
<path class="st14" d="M110.2,125.4"/>
<path id="path4228" inkscape:connector-curvature="0" class="st5" d="M95.2,146.2l2.1-1.6l10.3,13c-0.1,1-0.8,1.6-2.1,1.6
	L95.2,146.2z"/>
<g id="g4230" transform="translate(-229.64347,-16.351332)">
	<path id="path4232" inkscape:connector-curvature="0" class="st10" d="M332.2,158.6c0.7,1.2,1.3-0.6,1.6,0.9c0.3,1.5-0.9,0.4-1,2
		s1.3,0.1,0.7,1.7c-0.6,1.6-0.9,0-1.8,1.5c-1,1.5,0.9,0.7-0.4,2.1c-1.3,1.3-0.6-0.5-2.1,0.6c-1.5,1,0.3,1.2-1.4,1.9
		c-1.6,0.7-0.2-0.8-1.9-0.5c-1.7,0.3-0.4,1.3-2,1.2s0.3-0.9-1.1-1.4s-1,1.1-2.1,0.2c-1.1-0.9,0.7-0.8,0-2s-1.3,0.6-1.6-0.9
		c-0.3-1.5,0.9-0.4,1-2s-1.3-0.1-0.7-1.7c0.6-1.6,0.9,0,1.8-1.5c1-1.5-0.9-0.7,0.4-2.1c1.3-1.3,0.6,0.5,2.1-0.6
		c1.5-1-0.3-1.2,1.4-1.9c1.6-0.7,0.2,0.8,1.9,0.5c1.7-0.3,0.4-1.3,2-1.2s-0.3,0.9,1.1,1.4s1-1.1,2.1-0.2
		C333.2,157.5,331.5,157.4,332.2,158.6L332.2,158.6z"/>
	<path id="path4234" inkscape:connector-curvature="0" class="st10" d="M328.5,162.4c-0.3,1.3-1.7,2.3-3,2.3l0,0
		c-1.3,0-2.1-1-1.7-2.3l0,0c0.3-1.3,1.7-2.3,3-2.3l0,0C328.1,160.1,328.9,161.1,328.5,162.4L328.5,162.4z"/>
</g>
<path id="path4238" inkscape:connector-curvature="0" sodipodi:nodetypes="ccccc" class="st5" d="M83.5,131.1l2.1-1.6l12.2,15.9
	c-0.1,1-0.8,1.6-2.1,1.6L83.5,131.1z"/>
<path id="path4444" inkscape:connector-curvature="0" class="st15" d="M99.1,93.2c1,6.9,1.8,12.9,0,19.8c-1.1,8.6-16.8,20-37.3,36.7
	c-5.9,4.8-13.4,6.8-18.9,6.7c-2.6,0-4.8,1.3-7,1.4L99.1,93.2z"/>
<path id="path4446" inkscape:connector-curvature="0" class="st10" d="M18.2,111.6l34.9-36.7c-14.4-5.9-17.5-4.1-30.5,9.5
	c-6.2,7.4-12.5,10.5-7.6,23.7L18.2,111.6L18.2,111.6z"/>
<path id="path4448" inkscape:connector-curvature="0" sodipodi:nodetypes="ccccc" class="st16" d="M93.9,109.6
	c19.6-21.8-13.8-47-36.8-38.6c-25,10.4-58.9,50.6-57,76.9c0.8,9.7,3.4,16.7,13.1,17.9C41,168.6,76.1,129,93.9,109.6L93.9,109.6z"/>
<path id="path4452" inkscape:connector-curvature="0" class="st10" d="M53.8,81.7c12.2-8.7,27.6-2.3,27.4,13
	c0.3,3.7-1.5,6.3-3.6,9.2c-6.1,8.3-15.9,16.3-25.8,18.3c-5.1,1.3-10-0.4-14.2-3.4c-2.7-2.3-3.6-5.5-2.6-11.1
	C38.1,98.1,44.9,88.2,53.8,81.7L53.8,81.7z"/>
<polygon class="st7" points="118.9,163.2 115.3,156.5 111,126.3 102.5,129 108.4,163 112.9,171.6 "/>
<polygon class="st6" points="100.1,128.3 121,121.5 121.1,123.1 102.5,129 108.4,163 106.6,163 "/>
<path id="path4456" inkscape:connector-curvature="0" class="st2" d="M70.9,73.1c-10.5-28.3-17-47.4-36.3-69.8l0.2,1.8
	c18.8,22.8,24,39.8,34.6,68.2C70.1,74.2,70.5,73.7,70.9,73.1L70.9,73.1z"/>
<path id="path4470" inkscape:connector-curvature="0" class="st6" d="M134.8,109.7c1.7,2,1.9-0.9,3.1,1.5c1.1,2.4-1.3,0.7-0.8,3.3
	s2.1,0.2,1.9,2.8c-0.2,2.6-1.5,0-2.4,2.4c-0.9,2.5,1.8,1.2,0.3,3.4c-1.5,2.2-1.2-0.8-3.3,0.9c-2,1.7,0.9,1.9-1.5,3s-0.7-1.3-3.3-0.8
	c-2.6,0.5-0.2,2.1-2.8,1.9c-2.6-0.2,0-1.5-2.5-2.3c-2.5-0.9-1.2,1.8-3.4,0.3c-2.2-1.5,0.8-1.2-1-3.2c-1.7-2-1.9,0.9-3.1-1.5
	c-1.1-2.4,1.3-0.7,0.8-3.3c-0.5-2.6-2.1-0.2-1.9-2.8c0.2-2.6,1.5,0,2.4-2.4c0.9-2.5-1.8-1.2-0.3-3.4c1.5-2.2,1.2,0.8,3.3-0.9
	c2-1.7-0.9-1.9,1.5-3s0.7,1.3,3.3,0.8s0.2-2.1,2.8-1.9s0,1.5,2.5,2.3c2.5,0.9,1.2-1.8,3.4-0.3S133.1,107.7,134.8,109.7L134.8,109.7z
	"/>
<path id="path4472" inkscape:connector-curvature="0" class="st3" d="M132.8,116.3c0,3.2-2.6,5.7-5.8,5.7l0,0
	c-3.2,0-5.8-2.6-5.8-5.7l0,0c0-3.2,2.6-5.7,5.8-5.7l0,0C130.2,110.6,132.8,113.1,132.8,116.3L132.8,116.3z"/>
</svg>
